{
    "asset" : {
        "generator" : "Khronos glTF Blender I/O v1.4.40",
        "version" : "2.0"
    },
    "scene" : 0,
    "scenes" : [
        {
            "name" : "Scene",
            "nodes" : [
                1
            ]
        }
    ],
    "nodes" : [
        {
            "mesh" : 0,
            "name" : "Object.1"
        },
        {
            "children" : [
                0
            ],
            "mesh" : 1,
            "name" : "Object.2",
            "rotation" : [
                0,
                0.9999966621398926,
                0,
                0.0025906097143888474
            ]
        }
    ],
    "materials" : [
        {
            "doubleSided" : true,
            "name" : "Default OBJ",
            "pbrMetallicRoughness" : {
                "baseColorFactor" : [
                    0.006686906795948744,
                    0.08505693078041077,
                    0.8000000715255737,
                    1
                ],
                "metallicFactor" : 0,
                "roughnessFactor" : 0.5
            }
        }
    ],
    "meshes" : [
        {
            "name" : "Object.1",
            "primitives" : [
                {
                    "attributes" : {
                        "POSITION" : 0,
                        "NORMAL" : 1
                    },
                    "indices" : 2,
                    "material" : 0
                }
            ]
        },
        {
            "name" : "Object.2",
            "primitives" : [
                {
                    "attributes" : {
                        "POSITION" : 3,
                        "NORMAL" : 4,
                        "TEXCOORD_0" : 5
                    },
                    "indices" : 6,
                    "material" : 0
                }
            ]
        }
    ],
    "accessors" : [
        {
            "bufferView" : 0,
            "componentType" : 5126,
            "count" : 996,
            "max" : [
                15.053470611572266,
                7.8809380531311035,
                3.262134075164795
            ],
            "min" : [
                6.673871040344238,
                0,
                -0.05084199830889702
            ],
            "type" : "VEC3"
        },
        {
            "bufferView" : 1,
            "componentType" : 5126,
            "count" : 996,
            "type" : "VEC3"
        },
        {
            "bufferView" : 2,
            "componentType" : 5123,
            "count" : 996,
            "type" : "SCALAR"
        },
        {
            "bufferView" : 3,
            "componentType" : 5126,
            "count" : 2130,
            "max" : [
                22.14515495300293,
                51.72220230102539,
                3.259864091873169
            ],
            "min" : [
                -0.5274119973182678,
                12.181842803955078,
                -0.04232500120997429
            ],
            "type" : "VEC3"
        },
        {
            "bufferView" : 4,
            "componentType" : 5126,
            "count" : 2130,
            "type" : "VEC3"
        },
        {
            "bufferView" : 5,
            "componentType" : 5126,
            "count" : 2130,
            "type" : "VEC2"
        },
        {
            "bufferView" : 6,
            "componentType" : 5123,
            "count" : 2130,
            "type" : "SCALAR"
        }
    ],
    "bufferViews" : [
        {
            "buffer" : 0,
            "byteLength" : 11952,
            "byteOffset" : 0
        },
        {
            "buffer" : 0,
            "byteLength" : 11952,
            "byteOffset" : 11952
        },
        {
            "buffer" : 0,
            "byteLength" : 1992,
            "byteOffset" : 23904
        },
        {
            "buffer" : 0,
            "byteLength" : 25560,
            "byteOffset" : 25896
        },
        {
            "buffer" : 0,
            "byteLength" : 25560,
            "byteOffset" : 51456
        },
        {
            "buffer" : 0,
            "byteLength" : 17040,
            "byteOffset" : 77016
        },
        {
            "buffer" : 0,
            "byteLength" : 4260,
            "byteOffset" : 94056
        }
    ],
    "buffers" : [
        {
            "byteLength" : 98316,
            "uri" : "QuestionMark.bin"
        }
    ]
}
